<mxfile host="app.diagrams.net" modified="2024-04-26T05:56:06.926Z" agent="Mozilla/5.0 (X11; Linux x86_64) AppleWebKit/537.36 (KHTML, like Gecko) Chrome/124.0.0.0 Safari/537.36" etag="pEC9oKeQDjAH0lk5VvzL" version="24.3.0" type="device">
  <diagram name="Page-1" id="sNq0cwUZBGhNZ78gHTRc">
    <mxGraphModel dx="1760" dy="966" grid="1" gridSize="10" guides="1" tooltips="1" connect="1" arrows="1" fold="1" page="1" pageScale="1" pageWidth="850" pageHeight="1100" math="0" shadow="0">
      <root>
        <mxCell id="0" />
        <mxCell id="1" parent="0" />
        <mxCell id="y6XsWSgxVyZHeU39wQFt-1" value="NGINX" style="rounded=0;whiteSpace=wrap;html=1;fillColor=#d5e8d4;strokeColor=#82b366;" parent="1" vertex="1">
          <mxGeometry x="120" y="200" width="120" height="440" as="geometry" />
        </mxCell>
        <mxCell id="FdpQEZ3YWwQ4bJ486MFl-2" value="Link Service" style="rounded=0;whiteSpace=wrap;html=1;" parent="1" vertex="1">
          <mxGeometry x="360" y="320" width="120" height="80" as="geometry" />
        </mxCell>
        <mxCell id="FdpQEZ3YWwQ4bJ486MFl-3" value="Click Service" style="rounded=0;whiteSpace=wrap;html=1;" parent="1" vertex="1">
          <mxGeometry x="360" y="200" width="120" height="80" as="geometry" />
        </mxCell>
        <mxCell id="FdpQEZ3YWwQ4bJ486MFl-5" value="Cache (Redis)" style="shape=cylinder3;whiteSpace=wrap;html=1;boundedLbl=1;backgroundOutline=1;size=15;fillColor=#f8cecc;strokeColor=#b85450;" parent="1" vertex="1">
          <mxGeometry x="390" y="80" width="60" height="80" as="geometry" />
        </mxCell>
        <mxCell id="FdpQEZ3YWwQ4bJ486MFl-7" value="RabbitMQ" style="rounded=0;whiteSpace=wrap;html=1;fillColor=#ffe6cc;strokeColor=#d79b00;" parent="1" vertex="1">
          <mxGeometry x="600" y="200" width="120" height="440" as="geometry" />
        </mxCell>
        <mxCell id="FdpQEZ3YWwQ4bJ486MFl-10" value="" style="endArrow=classic;html=1;rounded=0;exitX=1.004;exitY=0.09;exitDx=0;exitDy=0;entryX=0;entryY=0.5;entryDx=0;entryDy=0;exitPerimeter=0;" parent="1" source="y6XsWSgxVyZHeU39wQFt-1" target="FdpQEZ3YWwQ4bJ486MFl-3" edge="1">
          <mxGeometry width="50" height="50" relative="1" as="geometry">
            <mxPoint x="240" y="259.24" as="sourcePoint" />
            <mxPoint x="350" y="261" as="targetPoint" />
          </mxGeometry>
        </mxCell>
        <mxCell id="FdpQEZ3YWwQ4bJ486MFl-12" value="" style="endArrow=classic;html=1;rounded=0;exitX=1.004;exitY=0.363;exitDx=0;exitDy=0;exitPerimeter=0;" parent="1" source="y6XsWSgxVyZHeU39wQFt-1" edge="1">
          <mxGeometry width="50" height="50" relative="1" as="geometry">
            <mxPoint x="250" y="370" as="sourcePoint" />
            <mxPoint x="360" y="360" as="targetPoint" />
          </mxGeometry>
        </mxCell>
        <mxCell id="FdpQEZ3YWwQ4bJ486MFl-13" value="" style="endArrow=classic;html=1;rounded=0;exitX=1.004;exitY=0.374;exitDx=0;exitDy=0;exitPerimeter=0;" parent="1" source="FdpQEZ3YWwQ4bJ486MFl-3" edge="1">
          <mxGeometry width="50" height="50" relative="1" as="geometry">
            <mxPoint x="480.0000000000001" y="220" as="sourcePoint" />
            <mxPoint x="600" y="230" as="targetPoint" />
          </mxGeometry>
        </mxCell>
        <mxCell id="FdpQEZ3YWwQ4bJ486MFl-14" value="" style="endArrow=classic;html=1;rounded=0;entryX=1.004;entryY=0.626;entryDx=0;entryDy=0;entryPerimeter=0;" parent="1" target="FdpQEZ3YWwQ4bJ486MFl-3" edge="1">
          <mxGeometry width="50" height="50" relative="1" as="geometry">
            <mxPoint x="600" y="250" as="sourcePoint" />
            <mxPoint x="460" y="370" as="targetPoint" />
          </mxGeometry>
        </mxCell>
        <mxCell id="FdpQEZ3YWwQ4bJ486MFl-15" value="" style="endArrow=classic;html=1;rounded=0;exitX=0.331;exitY=0.997;exitDx=0;exitDy=0;exitPerimeter=0;entryX=0.417;entryY=-0.007;entryDx=0;entryDy=0;entryPerimeter=0;" parent="1" source="FdpQEZ3YWwQ4bJ486MFl-5" target="FdpQEZ3YWwQ4bJ486MFl-3" edge="1">
          <mxGeometry width="50" height="50" relative="1" as="geometry">
            <mxPoint x="412.03999999999996" y="159.52" as="sourcePoint" />
            <mxPoint x="412.76" y="199.51999999999998" as="targetPoint" />
          </mxGeometry>
        </mxCell>
        <mxCell id="FdpQEZ3YWwQ4bJ486MFl-16" value="" style="endArrow=classic;html=1;rounded=0;entryX=0.667;entryY=0.997;entryDx=0;entryDy=0;entryPerimeter=0;exitX=0.583;exitY=-0.004;exitDx=0;exitDy=0;exitPerimeter=0;" parent="1" source="FdpQEZ3YWwQ4bJ486MFl-3" target="FdpQEZ3YWwQ4bJ486MFl-5" edge="1">
          <mxGeometry width="50" height="50" relative="1" as="geometry">
            <mxPoint x="440" y="199.92000000000002" as="sourcePoint" />
            <mxPoint x="440.77999999999986" y="160" as="targetPoint" />
          </mxGeometry>
        </mxCell>
        <mxCell id="FdpQEZ3YWwQ4bJ486MFl-17" value="" style="endArrow=classic;html=1;rounded=0;exitX=1;exitY=0.5;exitDx=0;exitDy=0;" parent="1" edge="1">
          <mxGeometry width="50" height="50" relative="1" as="geometry">
            <mxPoint x="480" y="350.0000000000001" as="sourcePoint" />
            <mxPoint x="600" y="350" as="targetPoint" />
            <Array as="points" />
          </mxGeometry>
        </mxCell>
        <mxCell id="FdpQEZ3YWwQ4bJ486MFl-18" value="Auth Service" style="rounded=0;whiteSpace=wrap;html=1;" parent="1" vertex="1">
          <mxGeometry x="360" y="440" width="120" height="80" as="geometry" />
        </mxCell>
        <mxCell id="FdpQEZ3YWwQ4bJ486MFl-19" value="" style="endArrow=classic;html=1;rounded=0;entryX=-0.005;entryY=0.502;entryDx=0;entryDy=0;entryPerimeter=0;exitX=1.004;exitY=0.909;exitDx=0;exitDy=0;exitPerimeter=0;" parent="1" target="FdpQEZ3YWwQ4bJ486MFl-18" edge="1">
          <mxGeometry width="50" height="50" relative="1" as="geometry">
            <mxPoint x="240.48000000000002" y="479.96000000000004" as="sourcePoint" />
            <mxPoint x="680" y="360" as="targetPoint" />
          </mxGeometry>
        </mxCell>
        <mxCell id="6GFCdKNQBQmSW8mXPwjD-1" value="Statistic Service" style="rounded=0;whiteSpace=wrap;html=1;" parent="1" vertex="1">
          <mxGeometry x="840" y="200" width="120" height="80" as="geometry" />
        </mxCell>
        <mxCell id="O0lcPpVivbu-eX9izf-D-1" value="" style="endArrow=classic;html=1;rounded=0;exitX=1;exitY=0.5;exitDx=0;exitDy=0;" parent="1" source="FdpQEZ3YWwQ4bJ486MFl-18" edge="1">
          <mxGeometry width="50" height="50" relative="1" as="geometry">
            <mxPoint x="600" y="440" as="sourcePoint" />
            <mxPoint x="600" y="480" as="targetPoint" />
          </mxGeometry>
        </mxCell>
        <mxCell id="O0lcPpVivbu-eX9izf-D-2" value="" style="endArrow=classic;html=1;rounded=0;entryX=1.004;entryY=0.626;entryDx=0;entryDy=0;entryPerimeter=0;exitX=-0.004;exitY=0.385;exitDx=0;exitDy=0;exitPerimeter=0;" parent="1" source="FdpQEZ3YWwQ4bJ486MFl-7" edge="1">
          <mxGeometry width="50" height="50" relative="1" as="geometry">
            <mxPoint x="590" y="370" as="sourcePoint" />
            <mxPoint x="480.48" y="370.08" as="targetPoint" />
          </mxGeometry>
        </mxCell>
        <mxCell id="_GUl9PDFjD2mMPlN3do9-5" value="Email Service" style="rounded=0;whiteSpace=wrap;html=1;" parent="1" vertex="1">
          <mxGeometry x="840" y="320" width="120" height="80" as="geometry" />
        </mxCell>
        <mxCell id="_GUl9PDFjD2mMPlN3do9-6" value="" style="endArrow=classic;html=1;rounded=0;exitX=1.004;exitY=0.364;exitDx=0;exitDy=0;exitPerimeter=0;entryX=0;entryY=0.5;entryDx=0;entryDy=0;" parent="1" source="FdpQEZ3YWwQ4bJ486MFl-7" target="_GUl9PDFjD2mMPlN3do9-5" edge="1">
          <mxGeometry width="50" height="50" relative="1" as="geometry">
            <mxPoint x="730" y="360" as="sourcePoint" />
            <mxPoint x="830" y="360" as="targetPoint" />
          </mxGeometry>
        </mxCell>
        <mxCell id="_GUl9PDFjD2mMPlN3do9-7" value="" style="endArrow=classic;html=1;rounded=0;entryX=0;entryY=0.375;entryDx=0;entryDy=0;entryPerimeter=0;exitX=1.004;exitY=0.067;exitDx=0;exitDy=0;exitPerimeter=0;" parent="1" source="FdpQEZ3YWwQ4bJ486MFl-7" target="6GFCdKNQBQmSW8mXPwjD-1" edge="1">
          <mxGeometry width="50" height="50" relative="1" as="geometry">
            <mxPoint x="730" y="230" as="sourcePoint" />
            <mxPoint x="820" y="220" as="targetPoint" />
          </mxGeometry>
        </mxCell>
        <mxCell id="_GUl9PDFjD2mMPlN3do9-8" value="" style="endArrow=classic;html=1;rounded=0;exitX=0;exitY=0.625;exitDx=0;exitDy=0;exitPerimeter=0;entryX=1;entryY=0.114;entryDx=0;entryDy=0;entryPerimeter=0;" parent="1" source="6GFCdKNQBQmSW8mXPwjD-1" target="FdpQEZ3YWwQ4bJ486MFl-7" edge="1">
          <mxGeometry width="50" height="50" relative="1" as="geometry">
            <mxPoint x="820" y="250" as="sourcePoint" />
            <mxPoint x="730" y="250" as="targetPoint" />
          </mxGeometry>
        </mxCell>
        <mxCell id="4_SdNaVdbfOBkQMhREs2-1" value="Demo Service" style="rounded=0;whiteSpace=wrap;html=1;" vertex="1" parent="1">
          <mxGeometry x="360" y="560" width="120" height="80" as="geometry" />
        </mxCell>
        <mxCell id="4_SdNaVdbfOBkQMhREs2-2" value="" style="endArrow=classic;html=1;rounded=0;exitX=1.004;exitY=0.5;exitDx=0;exitDy=0;exitPerimeter=0;" edge="1" parent="1">
          <mxGeometry width="50" height="50" relative="1" as="geometry">
            <mxPoint x="240" y="600" as="sourcePoint" />
            <mxPoint x="360" y="600" as="targetPoint" />
          </mxGeometry>
        </mxCell>
        <mxCell id="4_SdNaVdbfOBkQMhREs2-3" value="" style="endArrow=classic;html=1;rounded=0;exitX=1;exitY=0.5;exitDx=0;exitDy=0;" edge="1" parent="1">
          <mxGeometry width="50" height="50" relative="1" as="geometry">
            <mxPoint x="480" y="590.0000000000001" as="sourcePoint" />
            <mxPoint x="600" y="590" as="targetPoint" />
            <Array as="points" />
          </mxGeometry>
        </mxCell>
        <mxCell id="4_SdNaVdbfOBkQMhREs2-4" value="" style="endArrow=classic;html=1;rounded=0;entryX=1.004;entryY=0.626;entryDx=0;entryDy=0;entryPerimeter=0;exitX=-0.004;exitY=0.531;exitDx=0;exitDy=0;exitPerimeter=0;" edge="1" parent="1">
          <mxGeometry width="50" height="50" relative="1" as="geometry">
            <mxPoint x="600" y="610" as="sourcePoint" />
            <mxPoint x="480.48" y="610.0799999999999" as="targetPoint" />
          </mxGeometry>
        </mxCell>
      </root>
    </mxGraphModel>
  </diagram>
</mxfile>
